<?xml version="1.0"?>
<svg width="499.99999999999994" height="499.99999999999994" xmlns="http://www.w3.org/2000/svg" xmlns:svg="http://www.w3.org/2000/svg" version="1.2">
 <g class="layer">
  <title>Layer 1</title>
  <g id="svg_1">
   <path class="s0" d="m499.1,92.39l0,315.63c0,50.51 -41.16,91.39 -91.55,91.39l-316.2,0c-50.39,0 -91.45,-41.08 -91.45,-91.39l0,-315.63c0,-50.51 40.96,-91.39 91.45,-91.39l316.2,0c50.39,0 91.55,40.98 91.55,91.39z" fill="#911614" id="svg_3" stroke="#682fa0"/>
   <path d="m79.52,90.59l-9.29,0l0,-16.33l9.12,0c5.85,0 9.54,2.8 9.54,8.11l0,0.12c0,4.59 -3.46,8.11 -9.36,8.11l0,-0.01zm67,-0.05l0,-0.18c0,-9.48 -6.5,-16.09 -16.16,-16.09l-9.06,0l0,32.19l9.06,0c9.66,0 16.16,-6.44 16.16,-15.92zm91.86,-30.58l0,202.21c0,16.45 -13.29,29.81 -29.81,29.81l-148.26,0c-16.45,0 -29.81,-13.36 -29.81,-29.81l0,-202.21c0,-16.45 13.36,-29.81 29.81,-29.81l148.26,0c16.45,0 29.81,13.36 29.81,29.81zm-128.88,51.27c0,3.27 2.63,5.9 5.9,5.9l14.97,0c16.82,0 28.43,-11.68 28.43,-26.77l0,-0.12c0,-15.09 -11.63,-26.59 -28.43,-26.59l-14.97,0c-3.27,0 -5.9,2.56 -5.9,5.85l0,41.73zm-51.03,0.48c0,3.27 2.56,5.85 5.9,5.85c3.27,0 5.85,-2.56 5.85,-5.85l0,-10.61l8.94,0c11.98,0 21.64,-6.44 21.64,-18.84l0,-0.12c0,-10.9 -7.75,-18.48 -20.51,-18.48l-15.97,0c-3.27,0 -5.85,2.56 -5.85,5.85l0,42.2l0,0l-0.01,0zm152.01,134.85c0,-6.56 -5.36,-11.92 -11.92,-11.92l-128.17,0c-6.61,0 -11.92,5.36 -11.92,11.92c0,6.61 5.31,11.92 11.92,11.92l128.17,0c6.56,0 11.92,-5.31 11.92,-11.92zm0,-44.71c0,-6.56 -5.36,-11.92 -11.92,-11.92l-128.17,0c-6.61,0 -11.92,5.36 -11.92,11.92c0,6.56 5.31,11.92 11.92,11.92l128.17,0c6.56,0 11.92,-5.31 11.92,-11.92zm0,-44.71c0,-6.56 -5.36,-11.92 -11.92,-11.92l-83.46,0c-6.61,0 -11.92,5.36 -11.92,11.92c0,6.56 5.31,11.92 11.92,11.92l83.46,0c6.56,0 11.92,-5.31 11.92,-11.92zm0,-88.16c0,-2.98 -2.39,-5.31 -5.36,-5.31l-29.92,0c-3.27,0 -5.9,2.56 -5.9,5.85l0,42.2c0,3.27 2.63,5.85 5.9,5.85c3.27,0 5.85,-2.56 5.85,-5.85l0,-15.32l20.63,0c2.98,0 5.36,-2.32 5.36,-5.31s-2.39,-5.36 -5.36,-5.36l-20.63,0l0,-11.39l24.09,0c2.98,0 5.36,-2.39 5.36,-5.36l-0.01,0z" fill="#ffffff" id="svg_2"/>
  </g>
  <g id="svg_6" transform="matrix(1 0 0 1 0 0)">
   <path d="m348.32,350.46c-6.86,0 -12.43,5.57 -12.43,12.43c0,6.86 5.57,12.43 12.43,12.43c6.86,0 12.43,-5.57 12.43,-12.43c0,-6.86 -5.57,-12.43 -12.43,-12.43z" fill="#ffffff" id="svg_4"/>
   <path d="m464.82,278.28l-206.48,0c-5,0 -9.16,4.08 -9.16,9.09l0,30.1l-30.13,0c-5,0 -9.06,4.07 -9.06,9.06l0,134.49c0,5.01 4.07,9.06 9.06,9.06l206.68,0c5.01,0 9.06,-4.07 9.06,-9.06l0,-30.11l30.01,0c5,0 9.18,-4.05 9.18,-9.04l0,-134.49c0,-5 -4.18,-9.09 -9.18,-9.09l0.01,-0.01l0.01,0zm-46.5,133.38l-33.61,-34.38c-0.2,0 -0.43,0.02 -0.68,-0.07c-0.5,-0.2 -1.05,-0.01 -1.55,0.19c-0.25,0.11 -0.48,0.35 -0.68,0.55l-31.6,31.64l-48.08,-48.06c-0.81,-0.81 -2.11,-0.79 -2.92,0.01l-31.5,31.52l-15.03,-15.03c-0.81,-0.81 -2.11,-0.81 -2.92,0l-23.23,23.25l0,-67.31l191.81,0l0,77.69l-0.01,0zm39.19,2.75l-22.69,0l0,-87.87c0,-5.01 -4.07,-9.06 -9.06,-9.06l-160.06,0l0,-22.69l191.81,0l0,119.62z" fill="#ffffff" id="svg_5"/>
  </g>
  <path d="m411.74,151.94l-55.18,-49.93c-2.19,-2.09 -4.97,0.41 -4.97,4.47l0,20.92c-0.86,0.2 -1.73,0.41 -2.6,0.61c-7.2,1.62 -14.43,4.56 -21.26,8.54c-12.08,7.03 -23.33,18.54 -31.13,35.01c-8.11,17.14 -11.98,39.08 -11.16,60.42c0,0.02 0,0.04 0,0.06c0.15,3.88 2.23,6.85 4.67,6.71c0.05,0 0.1,-0.01 0.15,-0.01c2.01,-0.12 3.74,-2.32 4.22,-5.41c0.01,-0.06 0.02,-0.11 0.02,-0.15c1.37,-8.38 3.62,-16.45 6.71,-23.6c5.25,-12.17 12.99,-20.63 21.99,-24.21c9.08,-3.62 18.38,-2.67 27.52,-0.16c0.56,0.15 0.85,0.23 0.85,0.23l0,20.92c0,4.06 2.78,6.56 4.97,4.47l55.18,-49.93c2.12,-2.03 2.12,-6.92 0,-8.94z" fill="#ffffff" id="svg_7" transform="rotate(90 349.33 170.001)"/>
 </g>
</svg>